<svg width="16" height="16" fill="none" xmlns="http://www.w3.org/2000/svg"><g clip-path="url(#a)"><path d="M7.75 0A7.749 7.749 0 0 0 0 7.75a7.749 7.749 0 0 0 7.75 7.75 7.749 7.749 0 0 0 7.75-7.75A7.749 7.749 0 0 0 7.75 0Z" fill="#EED202"/><path d="M9.488 11.3c0 .827-.673 1.5-1.5 1.5-.828 0-1.5-.673-1.5-1.5s.672-1.5 1.5-1.5c.827 0 1.5.673 1.5 1.5ZM6.66 3.672l.255 5.1a.45.45 0 0 0 .45.428h1.243a.45.45 0 0 0 .45-.428l.255-5.1a.45.45 0 0 0-.45-.472H7.111a.45.45 0 0 0-.45.472Z" fill="#fff"/></g><defs><clipPath id="a"><path fill="#fff" d="M0 0h16v16H0z"/></clipPath></defs></svg>