<svg width="16" height="16" fill="none" xmlns="http://www.w3.org/2000/svg"><path d="M1.75 2A1.75 1.75 0 0 0 0 3.75v8.5A1.75 1.75 0 0 0 1.75 14h12.5A1.75 1.75 0 0 0 16 12.25v-8.5A1.75 1.75 0 0 0 14.25 2H1.75Z" fill="#217EE7"/><path d="M2.258 5.244a.81.81 0 0 0-.258.59.81.81 0 0 0 .258.589.91.91 0 0 0 .624.244h8.236a.91.91 0 0 0 .624-.244.81.81 0 0 0 .258-.59.81.81 0 0 0-.258-.589.91.91 0 0 0-.624-.244H2.882a.91.91 0 0 0-.624.244ZM7.588 8.333H2.882a.91.91 0 0 0-.624.244.81.81 0 0 0-.258.59.81.81 0 0 0 .258.589.91.91 0 0 0 .624.244h4.706a.91.91 0 0 0 .624-.244.81.81 0 0 0 .259-.59.81.81 0 0 0-.259-.589.91.91 0 0 0-.624-.244Z" fill="#fff"/><path d="M0 3.75C0 2.784.784 2 1.75 2h12.5c.966 0 1.75.784 1.75 1.75v8.5A1.75 1.75 0 0 1 14.25 14H1.75A1.75 1.75 0 0 1 0 12.25v-8.5Zm1.75-.25a.25.25 0 0 0-.25.25v8.5c0 .138.112.25.25.25h12.5a.25.25 0 0 0 .25-.25v-8.5a.25.25 0 0 0-.25-.25H1.75Z" fill="#217EE7"/></svg>